<svg xmlns="http://www.w3.org/2000/svg" viewBox="0 0 820 1485">
  <rect width="820" height="1485" fill="#F4F6FB"/>
  <path fill="#0C0F1E" d="M0 1473.67 c0 -10.58 2.04 -16.71 23.39 -69.07 12.81 -31.75 37.13 -91.72 54.03 -133.68 16.90 -41.78 35.28 -87.45 40.85 -101.19 5.57 -13.74 20.42 -50.50 33.05 -81.70 64.06 -159.12 125.51 -311.37 145.75 -361.13 12.44 -30.64 46.79 -115.49 76.13 -188.46 73.15 -181.40 113.44 -280.92 170.07 -419.99 l48.09 -118.46 9.28 0 9.28 0 13.18 23.77 c113.82 203.68 182.33 326.41 223.55 399.56 14.11 25.07 39.55 70.55 56.63 101.19 17.08 30.64 38.62 69.07 47.90 85.41 16.15 28.78 25.25 44.75 66.66 117.90 10.77 18.94 32.12 57 47.72 84.48 l28.04 50.32 0 311.37 0 311.37 -9.10 0 -8.91 0 -21.91 -51.43 c-24.32 -57.19 -55.70 -131.83 -75.20 -178.80 -35.83 -86.52 -44.56 -106.39 -47.72 -108.80 -2.79 -2.04 -45.49 -2.41 -260.68 -2.60 -244.53 0 -257.53 0.19 -260.31 3.34 -1.67 1.86 -8.91 17.82 -16.15 35.65 -7.24 17.82 -21.91 53.84 -32.49 79.84 -47.16 116.23 -80.95 198.67 -86.89 212.22 l-4.83 10.58 -134.61 0 -134.80 0 0 -11.70z m845.54 -562.03 c-0.19 -2.60 -7.43 -23.39 -16.34 -46.42 -8.91 -23.02 -23.21 -60.16 -31.75 -82.62 -8.54 -22.47 -20.98 -55.52 -27.85 -73.34 -36.21 -95.06 -83.37 -220.21 -90.98 -242.30 -2.97 -8.17 -5.76 -15.60 -6.50 -16.34 -0.74 -0.93 -5.20 8.36 -9.84 20.42 -35.46 92.09 -146.49 381.18 -153.55 399.75 -4.83 12.81 -10.58 27.66 -12.81 33.05 -2.23 5.57 -3.53 10.77 -2.97 11.70 0.74 0.93 69.81 1.49 176.94 1.30 l175.83 -0.56 -0.19 -4.64z"/>
</svg>
